<svg version="1.1" id="Layer_1" xmlns="http://www.w3.org/2000/svg" xmlns:xlink="http://www.w3.org/1999/xlink" x="0px" y="0px" viewBox="0 0 1094.2 785.2" style="enable-background:new 0 0 1094.2 785.2;" xml:space="preserve">
<style type="text/css">
	.st0{fill:none;stroke:#030304;stroke-miterlimit:10;}
	.st1{fill:#9E9E9E;}
	.st2{fill:none;stroke:#030304;stroke-width:2;stroke-miterlimit:10;}
	.st3{fill:none;stroke:#FFFFFF;stroke-width:3;stroke-miterlimit:10;}
	.st4{fill:none;stroke:#030304;stroke-width:0.5;stroke-miterlimit:10;}
	.st5{opacity:0.95;}
	.st6{fill:url(#SVGID_1_);stroke:#686868;stroke-width:2;stroke-miterlimit:10;}
	.st7{fill:url(#SVGID_2_);stroke:#686868;stroke-width:2;stroke-miterlimit:10;}
	.st8{fill:url(#SVGID_3_);stroke:#686868;stroke-width:2;stroke-miterlimit:10;}
	.st9{fill:#E84C3D;}
	.st10{opacity:0.95;fill:#2EAB62;enable-background:new    ;}
	.st11{fill:none;stroke:#FFFFFF;stroke-miterlimit:10;}
	.st12{opacity:0.9;fill:#266FB6;enable-background:new    ;}
	.st13{fill:url(#SVGID_4_);stroke:#686868;stroke-miterlimit:10;}
	.st14{fill:none;stroke:#020203;stroke-width:1.5;stroke-miterlimit:10;}
	.st15{fill:none;stroke:#020203;stroke-miterlimit:10;}
	.st16{fill:#FFFFFF;}
	.st17{fill:#694595;}
</style>
<g>
	<path class="st0" d="M29.3,455.2h-0.2"></path>
</g>
<polygon class="st1" points="885.8,644.3 885.8,752.2 211.4,752.2 211.4,644.3 517.6,644.3 517.6,721.1 579.7,721.1 579.7,644.3 "></polygon>
<line class="st0" x1="217.4" y1="681.2" x2="517.6" y2="681.2"></line>
<line class="st0" x1="217.4" y1="685.6" x2="517.6" y2="685.6"></line>
<line class="st0" x1="217.4" y1="690" x2="517.6" y2="690"></line>
<line class="st0" x1="217.4" y1="694.5" x2="517.6" y2="694.5"></line>
<line class="st0" x1="217.4" y1="698.9" x2="517.6" y2="698.9"></line>
<line class="st0" x1="217.4" y1="703.3" x2="517.6" y2="703.3"></line>
<line class="st0" x1="217.4" y1="707.8" x2="517.6" y2="707.8"></line>
<line class="st0" x1="217.4" y1="712.2" x2="517.6" y2="712.2"></line>
<line class="st0" x1="217.4" y1="716.6" x2="517.6" y2="716.6"></line>
<line class="st0" x1="217.4" y1="721.1" x2="476.6" y2="721.1"></line>
<line class="st0" x1="217.4" y1="725.5" x2="476.6" y2="725.5"></line>
<line class="st0" x1="217.4" y1="730" x2="476.6" y2="730"></line>
<line class="st0" x1="217.4" y1="734.4" x2="476.6" y2="734.4"></line>
<line class="st0" x1="217.4" y1="738.8" x2="476.6" y2="738.8"></line>
<line class="st0" x1="217.4" y1="743.2" x2="476.6" y2="743.2"></line>
<line class="st0" x1="579.7" y1="681.2" x2="879.8" y2="681.2"></line>
<line class="st0" x1="217.4" y1="677.3" x2="517.6" y2="677.3"></line>
<line class="st0" x1="579.7" y1="677.3" x2="879.8" y2="677.3"></line>
<line class="st0" x1="217.4" y1="673.5" x2="517.6" y2="673.5"></line>
<line class="st0" x1="579.7" y1="673.5" x2="879.8" y2="673.5"></line>
<line class="st0" x1="217.4" y1="669.6" x2="517.6" y2="669.6"></line>
<line class="st0" x1="579.7" y1="669.6" x2="879.8" y2="669.6"></line>
<line class="st0" x1="217.4" y1="665.7" x2="517.6" y2="665.7"></line>
<line class="st0" x1="579.7" y1="665.7" x2="879.8" y2="665.7"></line>
<line class="st0" x1="217.4" y1="661.9" x2="517.6" y2="661.9"></line>
<line class="st0" x1="579.7" y1="661.9" x2="879.8" y2="661.9"></line>
<line class="st0" x1="217.4" y1="658" x2="517.6" y2="658"></line>
<line class="st0" x1="579.7" y1="658" x2="879.8" y2="658"></line>
<line class="st0" x1="217.4" y1="654.2" x2="517.6" y2="654.2"></line>
<line class="st0" x1="579.7" y1="654.2" x2="879.8" y2="654.2"></line>
<line class="st0" x1="217.4" y1="650.3" x2="517.6" y2="650.3"></line>
<line class="st0" x1="579.7" y1="650.3" x2="879.8" y2="650.3"></line>
<line class="st0" x1="217.4" y1="646.5" x2="517.6" y2="646.5"></line>
<line class="st0" x1="579.7" y1="646.5" x2="879.8" y2="646.5"></line>
<line class="st0" x1="579.7" y1="685.6" x2="879.8" y2="685.6"></line>
<line class="st0" x1="579.7" y1="690" x2="879.8" y2="690"></line>
<line class="st0" x1="579.7" y1="694.5" x2="879.8" y2="694.5"></line>
<line class="st0" x1="579.7" y1="698.9" x2="879.8" y2="698.9"></line>
<line class="st0" x1="579.7" y1="703.3" x2="879.8" y2="703.3"></line>
<line class="st0" x1="579.7" y1="707.8" x2="879.8" y2="707.8"></line>
<line class="st0" x1="579.7" y1="712.2" x2="879.8" y2="712.2"></line>
<line class="st0" x1="579.7" y1="716.6" x2="879.8" y2="716.6"></line>
<line class="st0" x1="579.7" y1="721.1" x2="879.8" y2="721.1"></line>
<line class="st0" x1="622.7" y1="725.5" x2="879.8" y2="725.5"></line>
<line class="st0" x1="622.7" y1="730" x2="879.8" y2="730"></line>
<line class="st0" x1="622.7" y1="734.4" x2="879.8" y2="734.4"></line>
<line class="st0" x1="622.7" y1="738.8" x2="879.8" y2="738.8"></line>
<line class="st0" x1="622.7" y1="743.2" x2="879.8" y2="743.2"></line>
<line class="st2" x1="487.9" y1="730" x2="501.2" y2="730"></line>
<line class="st2" x1="504.3" y1="730" x2="517.6" y2="730"></line>
<line class="st2" x1="487.9" y1="736.4" x2="501.2" y2="736.4"></line>
<line class="st2" x1="504.3" y1="736.4" x2="517.6" y2="736.4"></line>
<line class="st2" x1="487.9" y1="742.8" x2="501.2" y2="742.8"></line>
<line class="st2" x1="504.3" y1="742.8" x2="517.6" y2="742.8"></line>
<line class="st2" x1="534.8" y1="730" x2="548.1" y2="730"></line>
<line class="st2" x1="551.2" y1="730" x2="564.5" y2="730"></line>
<line class="st2" x1="534.8" y1="736.4" x2="548.1" y2="736.4"></line>
<line class="st2" x1="551.2" y1="736.4" x2="564.5" y2="736.4"></line>
<line class="st2" x1="534.8" y1="742.8" x2="548.1" y2="742.8"></line>
<line class="st2" x1="551.2" y1="742.8" x2="564.5" y2="742.8"></line>
<line class="st2" x1="581.7" y1="730" x2="595" y2="730"></line>
<line class="st2" x1="598" y1="730" x2="611.3" y2="730"></line>
<line class="st2" x1="581.7" y1="736.4" x2="595" y2="736.4"></line>
<line class="st2" x1="598" y1="736.4" x2="611.3" y2="736.4"></line>
<line class="st2" x1="581.7" y1="742.8" x2="595" y2="742.8"></line>
<line class="st2" x1="598" y1="742.8" x2="611.3" y2="742.8"></line>
<g>
	<path class="st2" d="M975.6,645.4h1c0,0,91.3-110,91.3-239C1068,200.7,901.3,34,695.6,34H398.8C193.2,34,26.5,200.7,26.5,406.4
		c0,0,2.7,136.1,88.2,239h1"></path>
	<path class="st2" d="M969.5,641h1c0,0,90-108.4,90-235.6c0-202.7-164.3-367-367-367H401c-202.7,0-367,164.3-367,367
		c0,0,2.7,134.2,86.9,235.6h1"></path>
	<path class="st2" d="M962.4,636h1c0,0,88.5-106.6,88.5-231.6C1052,205,890.4,43.4,691,43.4H403.4C204.1,43.4,42.5,205,42.5,404.3
		c0,0,2.6,131.9,85.5,231.6h1"></path>
	<path class="st2" d="M955.4,631h1c0,0,87-104.8,87-227.7c0-196-158.9-354.8-354.8-354.8H405.8C209.9,48.4,51,207.3,51,403.2
		c0,0,2.6,129.7,84,227.7h0.9"></path>
	<path class="st2" d="M949.3,626.6h1c0,0,85.7-103.2,85.7-224.3c0-193-156.5-349.5-349.5-349.5H408c-193,0-349.5,156.5-349.5,349.5
		c0,0,2.6,127.8,82.8,224.3h0.9"></path>
	<path class="st2" d="M942.3,621.6h1c0,0,84.2-101.5,84.2-220.4c0-189.6-153.7-343.4-343.4-343.4H410.4
		C220.7,57.8,67,211.5,67,401.2c0,0,2.5,125.5,81.3,220.4h0.9"></path>
	<path class="st2" d="M935.2,616.6h1c0,0,82.7-99.7,82.7-216.5c0-186.3-151-337.3-337.3-337.3H412.8c-186.3,0-337.3,151-337.3,337.3
		c0,0,2.5,123.3,79.9,216.5h0.9"></path>
	<path class="st2" d="M929.1,612.2h0.9c0,0,81.4-98.1,81.4-213c0-183.3-148.6-332-332-332H414.9c-183.3,0-332,148.6-332,332
		c0,0,2.4,121.4,78.6,213h0.9"></path>
	<path class="st2" d="M923,607.9h0.9c0,0,80.1-96.5,80.1-209.7c0-180.4-146.3-326.7-326.7-326.7H417
		c-180.4,0-326.7,146.3-326.7,326.7c0,0,2.4,119.4,77.4,209.7h0.9"></path>
	<path class="st2" d="M916.5,603.2h0.9c0,0,78.7-94.8,78.7-206c0-177.3-143.7-321-321-321H419.3c-177.3,0-321,143.7-321,321
		c0,0,2.3,117.3,76,206h0.9"></path>
	<path class="st2" d="M979.8,318.8C945.2,181.7,821,80.2,673.2,80.2h-252c-147.8,0-271.9,101.4-306.5,238.5l0,0"></path>
	<path class="st2" d="M953,263.6C903.4,157.7,795.8,84.3,671.2,84.3H423.3c-124.7,0-232.2,73.4-281.8,179.3l0,0"></path>
	<path class="st2" d="M928,229.4C873.5,144.3,778,87.9,669.5,87.9H425c-108.6,0-204,56.4-258.5,141.5l0,0"></path>
	<path class="st2" d="M901.5,201.9C846,134.4,761.9,91.4,667.8,91.4H426.7c-94.1,0-178.2,43-233.7,110.5l0,0"></path>
	<path class="st2" d="M874.8,180L874.8,180C821,127.3,747.3,94.8,666.1,94.8H428.4c-81.2,0-154.9,32.5-208.7,85.1l0,0"></path>
</g>
<path class="st2" d="M848.2,162.4C797.9,122.1,734,98,664.5,98H429.9c-69.5,0-133.3,24.1-183.7,64.3l0,0"></path>
<path class="st2" d="M813.7,144.7L813.7,144.7c-44-27-95.8-42.6-151.1-42.6H431.9c-55.4,0-107.1,15.6-151.1,42.6l0,0"></path>
<path class="st2" d="M780.3,132.1L780.3,132.1c-36.4-16.8-76.9-26.2-119.6-26.2h-227c-42.7,0-83.2,9.4-119.6,26.2l0,0"></path>
<path class="st2" d="M744.9,122.8c-27.1-8.7-56-13.4-85.9-13.4H435.4c-30,0-58.9,4.7-85.9,13.4l0,0"></path>
<path class="st2" d="M709.7,117.5L709.7,117.5c-16.9-3.2-34.4-4.9-52.2-4.9H437c-17.8,0-35.3,1.7-52.2,4.9l0,0"></path>
<line class="st2" x1="655.9" y1="115.8" x2="438.5" y2="115.8"></line>
<path class="st3" d="M916,599.2h0.9c0,0,78.6-87,78.6-189c0-162.6-143.5-294.4-320.5-294.4H419.5C242.5,115.8,99,247.6,99,410.2
	c0,0,2.3,107.7,75.9,189h0.9"></path>
<g>
	<line class="st4" x1="761.4" y1="40.4" x2="749.4" y2="118.1"></line>
	<line class="st4" x1="768.7" y1="41.9" x2="753.8" y2="118.9"></line>
	<line class="st4" x1="806.7" y1="52" x2="784" y2="126.4"></line>
	<line class="st4" x1="812.3" y1="53.8" x2="789.5" y2="128"></line>
	<line class="st4" x1="846.2" y1="66.7" x2="816.5" y2="137.4"></line>
	<line class="st4" x1="854.5" y1="70.3" x2="823.2" y2="140.1"></line>
	<line class="st4" x1="888.2" y1="87.9" x2="850.5" y2="153.2"></line>
	<polyline class="st4" points="854.6,155.5 893.4,91 893.5,90.9 	"></polyline>
	<line class="st4" x1="923.5" y1="111.5" x2="878.1" y2="170.4"></line>
	<polyline class="st4" points="883,174 928.7,115.5 928.8,115.3 	"></polyline>
</g>
<g class="st5">
	
		<linearGradient id="SVGID_1_" gradientUnits="userSpaceOnUse" x1="111.2355" y1="-155.4988" x2="387.2355" y2="-155.4988" gradientTransform="matrix(1 0 0 1 0 290.0472)">
		<stop offset="0" style="stop-color:#E5341F"></stop>
		<stop offset="2.055754e-02" style="stop-color:#E53720"></stop>
		<stop offset="9.886904e-02" style="stop-color:#E6421F"></stop>
		<stop offset="0.2089" style="stop-color:#E84920"></stop>
		<stop offset="0.5148" style="stop-color:#E84B20"></stop>
		<stop offset="0.8031" style="stop-color:#E84920"></stop>
		<stop offset="0.9068" style="stop-color:#E6421F"></stop>
		<stop offset="0.9806" style="stop-color:#E53720"></stop>
		<stop offset="1" style="stop-color:#E5341F"></stop>
	</linearGradient>
	<path data-tribune="TR_EST_NORD_INFERIEUR" class="st6" d="M387.2,34.2v114.2c-10.3,0.4-19.1,1.4-29.5,3.1c-10.8,1.9-27,5.5-37,8.4c-10.9,3.3-27.5,9.4-37.4,13.6
		c-10.8,4.6-23.4,11.1-32.8,16.3c-10.6,6-17.8,10.4-26.5,16.4c-33.1,23.3-37.5,28.7-37.5,28.7s-56.4-48.3-56.3-48.5
		c-10.5-9-19-16.4-19-16.5c19.6-23.3,45.4-46.2,66.8-62.2c11.8-8.5,21.1-14.5,32.8-21.1c13.2-7.3,34.2-17.7,47-23
		c12.4-5,24.4-9.2,35.9-12.7c14.8-4.4,37.9-9.6,50.2-11.9C363.5,35.7,378.7,34.6,387.2,34.2z" quota="true" is_active="true" style="fill: rgb(176, 0, 0);"></path>
	
		<linearGradient id="SVGID_2_" gradientUnits="userSpaceOnUse" x1="387.2355" y1="-198.3669" x2="712.0355" y2="-198.3669" gradientTransform="matrix(1 0 0 1 0 290.0472)">
		<stop offset="0" style="stop-color:#E5341F"></stop>
		<stop offset="2.055754e-02" style="stop-color:#E53720"></stop>
		<stop offset="9.886904e-02" style="stop-color:#E6421F"></stop>
		<stop offset="0.2089" style="stop-color:#E84920"></stop>
		<stop offset="0.5148" style="stop-color:#E84B20"></stop>
		<stop offset="0.8031" style="stop-color:#E84920"></stop>
		<stop offset="0.9068" style="stop-color:#E6421F"></stop>
		<stop offset="0.9806" style="stop-color:#E53720"></stop>
		<stop offset="1" style="stop-color:#E5341F"></stop>
	</linearGradient>
	<path data-tribune="TR_EST_NORD_SUPERIEUR" class="st7" d="M712,34.5v114.8c-3.7-0.4-7-0.8-9.8-1l-260-0.1H395c-2.7,0.1-5.3,0.1-7.8,0.3V34.3c3.6-0.2,6.1-0.2,7.1-0.2
		c0.4,0,0.6,0,0.6,0h307.2C702.2,34,705.9,34.1,712,34.5z" quota="true" is_active="true" style="fill: rgb(176, 0, 0);"></path>
	
		<linearGradient id="SVGID_3_" gradientUnits="userSpaceOnUse" x1="712.0355" y1="-154.7988" x2="984.3354" y2="-154.7988" gradientTransform="matrix(1 0 0 1 0 290.0472)">
		<stop offset="0" style="stop-color:#E5341F"></stop>
		<stop offset="2.055754e-02" style="stop-color:#E53720"></stop>
		<stop offset="9.886904e-02" style="stop-color:#E6421F"></stop>
		<stop offset="0.2089" style="stop-color:#E84920"></stop>
		<stop offset="0.5148" style="stop-color:#E84B20"></stop>
		<stop offset="0.8031" style="stop-color:#E84920"></stop>
		<stop offset="0.9068" style="stop-color:#E6421F"></stop>
		<stop offset="0.9806" style="stop-color:#E53720"></stop>
		<stop offset="1" style="stop-color:#E5341F"></stop>
	</linearGradient>
	<path data-tribune="TR_EST_SUD_INFERIEUR" class="st8" d="M966.4,187.4l-56.1,48.7c0.6-0.6,2-5-27.1-26.7c-7-5-19.9-13.5-28.6-18.4c-8.3-4.4-28-13.8-37.9-18
		c-8.5-3.3-17.5-6.5-27.1-9.4c-9.5-2.7-25-6.8-35.7-9c-9.2-1.8-28-3.9-41.9-5.4V34.4c11.2,0.6,30.4,2.2,49.5,6
		c11.5,2.5,37.3,9.1,51,13.5c10.9,3.5,22.2,7.8,33.8,12.8c11.1,5.1,36,17.6,47.2,24.2c10.1,6.1,25.4,17,35.3,24.5
		c19.5,15.4,38.4,33.8,55.5,55.5l-18.4,16C966,187.1,966.1,187.3,966.4,187.4z" quota="true" is_active="true" style="fill: rgb(176, 0, 0);"></path>
	<path class="st9" d="M910,236.3L910,236.3C910,236.2,910,236.3,910,236.3z"></path>
</g>
<g>
	<path class="st0" d="M105.6,176.8L105.6,176.8"></path>
</g>
<g>
	<path class="st0" d="M63.5,245.7L63.5,245.7"></path>
	<path class="st0" d="M125.9,276.6l-0.2-0.1"></path>
</g>
<g>
	<path class="st0" d="M91.4,408.6h0.1"></path>
</g>
<path data-tribune="TR_SUD_EST_INFERIEUR" class="st10" d="M1058.7,334c-6-28.2-16.2-60.3-25.7-81.7c-15.7-34-35.4-64.2-43.7-74.9L931.6,224c0,0.1,0.1,0.1,0.1,0.2
	l-17.2,13.9c15.2,17.9,18.5,25.8,28.3,43.4c10.6,20.2,18.8,53,23.6,72.4c4.7,21.7,5.8,49.8,4.9,69.8c-1.6,22.5-8.2,50.4-14.2,69.8
	c-7.2,21.4-19.6,46.6-28.5,62.8c-18.6,32-35.5,51.7-35.5,51.7l71.2,55.8c4.5-5.9,8.3-12.2,11.8-18.6l0.4,0.3
	c15.6-20.8,28.8-41.4,39.8-61.5c12.8-24.3,25.8-54.2,32.8-77.3c8-27.8,14.2-61.3,15.5-86.7C1065.6,391.7,1063.4,358.3,1058.7,334z" quota="false" is_active="true" style="fill: rgb(0, 100, 50);"></path>
<polyline class="st11" points="579.7,669.3 579.7,721.1 517.6,721.1 517.6,669.3 "></polyline>
<path data-tribune="TR_NORD_EST_INFERIEUR" class="st10" d="M163.5,550.2c-8.9-16.2-21.3-41.4-28.5-62.8c-6-19.4-12.6-47.3-14.2-69.8c-0.9-20,0.2-48.1,4.9-69.8
	c4.8-19.4,14-50.2,24.6-70.4c13.1-21.2,15.2-24,29.3-39.4l-15.1-13c0.2-0.2,0.4-0.5,0.6-0.7l-0.6,0.7l-5.4-4.6l-52.2-45.3
	c-8.3,10.7-34.1,43.2-49.8,77.2c-9.5,21.4-19.7,53.5-25.7,81.7c-4.7,24.3-6.9,57.7-6,85.9c1.3,25.4,7.5,58.9,15.5,86.7
	c7,23.1,20,53,32.8,77.3c11,20.1,37.3,57.5,52.9,78.3l74.3-64.3C201,597.9,182.1,582.2,163.5,550.2z" quota="true" is_active="true" style="fill: rgb(0, 100, 50);"></path>
<rect data-tribune="TR_OUEST_SUD_SUPERIEUR" x="622.7" y="644.5" class="st12" width="257.1" height="103.2" quota="true" is_active="true" style="fill: rgb(0, 64, 128);"></rect>
<rect data-tribune="TR_OUEST_NORD_SUPERIEUR" x="217.4" y="644.5" class="st12" width="259.2" height="103.2" quota="false" is_active="true" style="fill: rgb(0, 64, 128);"></rect>
<g>
	
		<linearGradient id="SVGID_4_" gradientUnits="userSpaceOnUse" x1="6524.4473" y1="-4996.1304" x2="7293.5474" y2="-4996.1304" gradientTransform="matrix(-1 0 0 -1 7453.2827 -4605.4321)">
		<stop offset="0" style="stop-color:#E5341F"></stop>
		<stop offset="2.055754e-02" style="stop-color:#E53720"></stop>
		<stop offset="9.886904e-02" style="stop-color:#E6421F"></stop>
		<stop offset="0.2089" style="stop-color:#E84920"></stop>
		<stop offset="0.5148" style="stop-color:#E84B20"></stop>
		<stop offset="0.8031" style="stop-color:#E84920"></stop>
		<stop offset="0.9068" style="stop-color:#E6421F"></stop>
		<stop offset="0.9806" style="stop-color:#E53720"></stop>
		<stop offset="1" style="stop-color:#E5341F"></stop>
	</linearGradient>
	<path class="st13" d="M159.7,391.8v-2.2c0-106.7,79.7-194.9,182.8-208.2c8.9-1.2,18-1.7,27.2-1.7h349.2
		c55.7,0,106.3,21.7,143.9,57.1c40.6,38.3,66,92.6,66,152.8v2.2c0,60.2-25.4,114.6-66,152.8v56.5H734.4c-5.1,0.4-10.3,0.6-15.5,0.6
		H369.6c-5.2,0-10.4-0.2-15.5-0.6c-2.7-0.2-5.4-0.4-8-0.7C241.2,588.7,159.7,499.8,159.7,391.8z"></path>
	<path class="st14" d="M369.7,220.2h346.1c93.8,0,169.9,76.1,169.9,169.9l0,0c0,93.8-76.1,169.9-169.9,169.9H369.7
		c-93.8,0-169.9-76.1-169.9-169.9l0,0C199.8,296.2,275.9,220.2,369.7,220.2z"></path>
	<polygon class="st14" points="791.3,534 795.8,534 795.8,288.6 800,288.6 800,248.5 784.8,248.5 784.8,289 790.3,289 	"></polygon>
	<path class="st14" d="M800,401.4v-23.2l27.5-73.1c0,0,52.7,16.8,52.7,86.2s-54.3,84.2-54.3,84.2L800,401.4z"></path>
	<polyline class="st14" points="289.4,246.7 296.2,246.7 296.2,381.6 299.2,381.6 299.2,398 296.2,398 296.2,493.1 301.5,493.1 
		301.5,532.4 286.2,532.4 286.2,493.1 291.2,493.1 291.2,398 203,398 203,381.6 289.4,381.6 	"></polyline>
	<path class="st15" d="M259.6,501.2l12.5-90c0,0-24.1-6.1-57,9.5C214.6,419.5,259.6,501.2,259.6,501.2z"></path>
	<path class="st15" d="M262.7,281.5l9.4,90.1c0,0-22.6,10.4-57.9-12.7C213.5,358.9,262.7,281.5,262.7,281.5z"></path>
	<g id="IPynv6_55_">
	</g>
</g>
<g>
	<path class="st16" d="M675.6,701.2h-1.4v5h-4.3v-17h5.7c2.1,0,3.8,0.5,5.1,1.6c1.3,1.1,1.8,2.6,1.8,4.4s-0.6,3.3-1.8,4.4
		C679.5,700.7,677.8,701.2,675.6,701.2z M675.6,692.8h-1.3v4.7h1.3c0.9,0,1.5-0.1,1.9-0.5c0.4-0.4,0.7-1,0.7-1.8s-0.2-1.5-0.7-1.8
		C677,693,676.4,692.8,675.6,692.8z"></path>
	<path class="st16" d="M689.7,700.3H689v5.9h-4.3v-17h5.4c2.1,0,3.8,0.4,5,1.4c1.3,1,1.8,2.2,1.8,3.8c0,1.3-0.3,2.4-0.8,3
		c-0.5,0.7-1.3,1.2-2.2,1.5c0.8,0.3,1.5,1.1,2,2.3l2.1,5h-4.5l-2-4.7C691.2,700.7,690.6,700.3,689.7,700.3z M690,692.8h-1v3.8h1
		c1.8,0,2.6-0.7,2.6-1.9c0-0.7-0.2-1.2-0.7-1.5C691.4,692.9,690.9,692.8,690,692.8z"></path>
	<path class="st16" d="M710.9,702.5v3.7h-11v-17h11v3.7h-6.6v2.9h5.7v3.7h-5.7v3.1L710.9,702.5L710.9,702.5z"></path>
	<path class="st16" d="M727.4,689.2h4.4v17h-3.9v-6.6c0-1.1,0.1-2.3,0.2-3.4c-1.2,2.4-2.5,4.7-3.8,6.8H721c-1.5-2.3-2.8-4.6-3.9-6.8
		c0.1,1,0.2,2.2,0.2,3.5v6.6h-3.8v-17.1h4.4c1.5,3.7,3.2,6.9,4.9,9.6C724.2,696.2,725.8,693,727.4,689.2z"></path>
	<path class="st16" d="M734.7,706.2v-17h4.3v17H734.7z"></path>
	<path class="st16" d="M741.9,699.4v-10.2h4.3v9.9c0,2.4,0.9,3.7,2.7,3.7s2.7-1.3,2.7-3.7v-9.9h4.3v10.2c0,2.3-0.6,4-1.8,5.2
		c-1.2,1.3-2.9,1.9-5.2,1.9c-2.2,0-4-0.7-5.2-1.9C742.5,703.4,741.9,701.6,741.9,699.4z"></path>
	<path class="st16" d="M772.7,689.2h4.4v17h-3.9v-6.6c0-1.1,0.1-2.3,0.2-3.4c-1.2,2.4-2.5,4.7-3.8,6.8h-3.3
		c-1.5-2.3-2.8-4.6-3.9-6.8c0.1,1,0.2,2.2,0.2,3.5v6.6h-3.9v-17.1h4.4c1.5,3.7,3.2,6.9,4.9,9.6C769.5,696.2,771.1,693,772.7,689.2z"></path>
	<path class="st16" d="M785,705.5l0.8-3.6c1.5,0.6,3,1,4.4,1c1.5,0,2.2-0.4,2.2-1.4c0-0.5-0.2-1-0.6-1.2c-0.4-0.3-1.1-0.6-2.2-1
		c-1.5-0.5-2.6-1.2-3.4-2c-0.8-0.8-1.2-1.8-1.2-3.2c0-1.6,0.5-2.9,1.5-3.8c1-0.9,2.5-1.3,4.5-1.3c1.8,0,3.5,0.3,4.8,1l-0.8,3.5
		c-1.3-0.5-2.5-0.8-3.7-0.8c-1.3,0-1.9,0.4-1.9,1.3c0,0.4,0.1,0.8,0.4,1.1c0.3,0.2,1,0.5,1.8,0.9c0.8,0.3,1.5,0.6,2.1,0.9
		c0.5,0.3,1,0.6,1.5,1c0.5,0.4,0.9,1,1.1,1.5c0.2,0.6,0.4,1.3,0.4,2.1c0,1.6-0.6,2.9-1.7,3.8c-1.2,0.9-2.7,1.4-4.6,1.4
		C788.2,706.5,786.5,706.1,785,705.5z"></path>
	<path class="st16" d="M798.5,699.4v-10.2h4.3v9.9c0,2.4,0.9,3.7,2.7,3.7s2.7-1.3,2.7-3.7v-9.9h4.3v10.2c0,2.3-0.6,4-1.8,5.2
		c-1.2,1.3-2.9,1.9-5.2,1.9c-2.2,0-4-0.7-5.2-1.9C799.1,703.4,798.5,701.6,798.5,699.4z"></path>
	<path class="st16" d="M815.3,706.2v-17h6.1c2.6,0,4.6,0.7,6.2,2.3c1.6,1.5,2.4,3.5,2.4,6.2s-0.8,4.8-2.4,6.3
		c-1.5,1.5-3.6,2.3-6.2,2.3L815.3,706.2L815.3,706.2z M821.3,692.8h-1.7v9.7h1.7c1.4,0,2.5-0.4,3.2-1.2c0.7-0.8,1-2.1,1-3.8
		c0-1.6-0.4-2.9-1-3.6C823.8,693.3,822.7,692.8,821.3,692.8z"></path>
</g>
<g>
	<path class="st16" d="M266,701.5h-1.3v4.7h-4v-16h5.3c2,0,3.6,0.5,4.8,1.5s1.7,2.4,1.7,4.2c0,1.7-0.6,3.1-1.7,4.2
		C269.6,701,268.1,701.5,266,701.5z M266,693.6h-1.2v4.4h1.2c0.8,0,1.4-0.1,1.8-0.5c0.4-0.3,0.6-0.9,0.6-1.7c0-0.8-0.2-1.4-0.6-1.7
		S266.7,693.6,266,693.6z"></path>
	<path class="st16" d="M279.3,700.7h-0.6v5.5h-4.1v-16h5.1c2,0,3.5,0.4,4.7,1.3c1.1,0.8,1.7,2.1,1.7,3.6c0,1.2-0.3,2.2-0.8,2.8
		c-0.5,0.6-1.2,1.1-2.1,1.5c0.8,0.3,1.4,1,1.9,2.1l2,4.7h-4.3l-1.9-4.4C280.7,701,280.1,700.7,279.3,700.7z M279.6,693.6h-0.9v3.6
		h0.9c1.7,0,2.4-0.6,2.4-1.8c0-0.7-0.2-1.1-0.6-1.4S280.4,693.6,279.6,693.6z"></path>
	<path class="st16" d="M299.2,702.8v3.5h-10.3v-16h10.3v3.5H293v2.8h5.3v3.5H293v2.9L299.2,702.8L299.2,702.8z"></path>
	<path class="st16" d="M314.8,690.2h4.2v16h-3.7V700c0-1,0.1-2.1,0.2-3.2c-1.1,2.3-2.4,4.4-3.6,6.4h-3.1c-1.4-2.1-2.6-4.3-3.7-6.4
		c0.1,1,0.2,2.1,0.2,3.3v6.2h-3.8v-16.1h4.2c1.5,3.5,3,6.5,4.6,9C311.8,696.8,313.3,693.8,314.8,690.2z"></path>
	<path class="st16" d="M321.7,706.2v-16h4v16H321.7z"></path>
	<path class="st16" d="M328.4,699.8v-9.6h4v9.3c0,2.3,0.8,3.5,2.6,3.5c1.7,0,2.6-1.2,2.6-3.5v-9.3h4v9.6c0,2.1-0.6,3.7-1.7,4.9
		s-2.8,1.8-4.9,1.8s-3.7-0.6-4.9-1.8C329,703.5,328.4,701.8,328.4,699.8z"></path>
	<path class="st16" d="M357.5,690.2h4.2v16H358V700c0-1,0.1-2.1,0.2-3.2c-1.1,2.3-2.4,4.4-3.6,6.4h-3.1c-1.4-2.1-2.6-4.3-3.7-6.4
		c0.1,1,0.2,2.1,0.2,3.3v6.2h-3.7v-16.1h4.2c1.5,3.5,3,6.5,4.6,9C354.5,696.8,356,693.8,357.5,690.2z"></path>
	<path class="st16" d="M373.4,706.2h-3.7v-16h3.9c1.7,3.4,3.7,6.9,6,10.3c-0.1-0.6-0.1-1.2-0.1-1.9v-8.4h3.7v16h-4
		c-0.9-1.2-1.5-2.1-2-2.8c-0.5-0.6-1-1.5-1.9-2.8c-0.8-1.2-1.5-2.4-2.1-3.7c0.1,0.6,0.1,1.6,0.1,2.8L373.4,706.2L373.4,706.2z"></path>
	<path class="st16" d="M398.3,692.2c1.3,1.5,2,3.5,2,6s-0.7,4.5-2,6s-3.2,2.3-5.5,2.3s-4.2-0.8-5.5-2.2c-1.3-1.5-2-3.5-2-6
		s0.7-4.5,2-6s3.2-2.2,5.5-2.2C395.2,689.9,397,690.7,398.3,692.2z M390.4,694.7c-0.6,0.8-0.8,1.9-0.8,3.5c0,1.6,0.3,2.7,0.8,3.5
		c0.6,0.8,1.4,1.2,2.4,1.2s1.9-0.4,2.4-1.2c0.6-0.8,0.8-1.9,0.8-3.5c0-1.6-0.3-2.7-0.8-3.5c-0.6-0.8-1.4-1.2-2.4-1.2
		C391.8,693.5,391,693.9,390.4,694.7z"></path>
	<path class="st16" d="M407.2,700.7h-0.6v5.5h-4.1v-16h5.1c2,0,3.5,0.4,4.7,1.3c1.2,0.9,1.7,2.1,1.7,3.6c0,1.2-0.3,2.2-0.8,2.8
		c-0.5,0.6-1.2,1.1-2.1,1.5c0.8,0.3,1.4,1,1.9,2.1l2,4.7h-4.3l-1.9-4.4C408.6,701,408,700.7,407.2,700.7z M407.5,693.6h-0.9v3.6h0.9
		c1.7,0,2.4-0.6,2.4-1.8c0-0.7-0.2-1.1-0.6-1.4S408.3,693.6,407.5,693.6z"></path>
	<path class="st16" d="M416.9,706.2v-16h5.8c2.4,0,4.3,0.7,5.8,2.1c1.5,1.4,2.2,3.3,2.2,5.8s-0.8,4.5-2.2,5.9
		c-1.5,1.5-3.4,2.1-5.8,2.1L416.9,706.2L416.9,706.2z M422.5,693.6h-1.6v9.1h1.6c1.3,0,2.4-0.3,3-1.1c0.6-0.8,1-1.9,1-3.5
		c0-1.5-0.3-2.7-1-3.4C424.9,694,423.9,693.6,422.5,693.6z"></path>
</g>
<g id="IPynv6_53_">
	
		<image style="overflow:visible;" width="551" height="360" id="IPynv6_1_" xlink:href="/stadium/oujda/bg.jpeg" transform="matrix(0.8575 0 0 0.8575 310.7944 236.8984)">
	</image>
</g>
<rect data-tribune="TR_OUEST_NORD_INFERIEUR" x="475.7" y="641.2" class="st17" width="146.1" height="107.7" quota="true" is_active="true" style="fill: rgb(155, 155, 0);"></rect>
<g>
	<path class="st16" d="M529.8,710.9h-11.1c-2.5-5.1-4.9-11.3-7.2-18.4c-2.3-7.2-4.1-13.9-5.3-20.3h10.1c1.1,5.5,2.5,11.1,4,16.7
		c1.5,5.6,2.8,9.8,4,12.6c1.1-2.8,2.5-7,4-12.6c1.5-5.6,2.8-11.2,4-16.7h10.1c-1.2,6.3-3,13.1-5.3,20.3
		C534.8,699.6,532.3,705.7,529.8,710.9z"></path>
	<path class="st16" d="M546.3,710.9v-38.7h9.8v38.7H546.3z"></path>
	<path class="st16" d="M575.6,699.5h-3.1v11.3h-9.8v-38.7h12.9c4.9,0,8.7,1.2,11.5,3.6c2.8,2.4,4.2,5.8,4.2,10.1
		c0,4.3-1.4,7.6-4.2,10C584.3,698.3,580.5,699.5,575.6,699.5z M575.4,680.5h-2.9v10.8h2.9c2,0,3.4-0.4,4.4-1.2
		c1-0.8,1.4-2.2,1.4-4.1c0-2-0.5-3.3-1.4-4.2C578.8,680.9,577.3,680.5,575.4,680.5z"></path>
</g>
<g>
	<path class="st16" d="M460.2,85.9v3.8h-11.3V72.1h11.3v3.8h-6.8v3.1h5.8v3.8h-5.8v3.2H460.2z"></path>
	<path class="st16" d="M462,88.9l0.8-3.7c1.6,0.6,3.1,1,4.5,1c1.5,0,2.3-0.5,2.3-1.5c0-0.5-0.2-1-0.6-1.2s-1.2-0.6-2.3-1
		c-1.5-0.5-2.7-1.2-3.5-2c-0.8-0.8-1.2-1.9-1.2-3.3c0-1.7,0.5-3,1.6-3.9c1.1-0.9,2.6-1.4,4.6-1.4c1.9,0,3.6,0.3,4.9,1l-0.9,3.7
		c-1.3-0.5-2.6-0.8-3.8-0.8c-1.3,0-2,0.4-2,1.3c0,0.5,0.2,0.8,0.5,1.1c0.3,0.3,1,0.6,1.9,0.9c0.9,0.3,1.5,0.6,2.1,0.9
		s1.1,0.6,1.6,1.1s0.9,1,1.1,1.6c0.2,0.6,0.4,1.3,0.4,2.2c0,1.7-0.6,2.9-1.8,3.9c-1.2,0.9-2.8,1.4-4.8,1.4
		C465.3,89.9,463.5,89.6,462,88.9z"></path>
	<path class="st16" d="M488.1,75.9h-4.3v13.8h-4.4V75.9H475v-3.8h13.1V75.9z"></path>
	<path class="st16" d="M503.7,89.9c-2.7,0-4.7-0.8-6.2-2.4c-1.5-1.6-2.2-3.8-2.2-6.6c0-2.8,0.7-5,2.2-6.7c1.5-1.6,3.6-2.5,6.4-2.5
		c1.4,0,2.8,0.3,4.2,0.9l-1,3.8c-1.4-0.5-2.4-0.8-3.2-0.8c-1.4,0-2.5,0.4-3.1,1.3c-0.7,0.9-1,2.2-1,3.9c0,1.7,0.3,3,1,3.8
		s1.7,1.3,3,1.3c1.2,0,2.4-0.3,3.6-1l0.8,3.8C507,89.6,505.4,89.9,503.7,89.9z"></path>
	<path class="st16" d="M521.7,85.9v3.8h-11.3V72.1h11.3v3.8h-6.8v3.1h5.8v3.8h-5.8v3.2H521.7z"></path>
	<path class="st16" d="M528.2,89.6h-4.1V72.1h4.3c1.8,3.7,4,7.5,6.6,11.3c-0.1-0.6-0.1-1.3-0.1-2.1v-9.2h4.1v17.5h-4.3
		c-1-1.3-1.7-2.3-2.2-3c-0.5-0.7-1.2-1.7-2-3c-0.8-1.3-1.6-2.7-2.4-4c0.1,0.7,0.1,1.7,0.1,3.1V89.6z"></path>
	<path class="st16" d="M554.1,75.9h-4.3v13.8h-4.4V75.9H541v-3.8h13.1V75.9z"></path>
	<path class="st16" d="M567.4,85.9v3.8h-11.3V72.1h11.3v3.8h-6.8v3.1h5.8v3.8h-5.8v3.2H567.4z"></path>
	<path class="st16" d="M575,83.6h-0.7v6.1h-4.5V72.1h5.6c2.2,0,3.9,0.5,5.2,1.4c1.2,0.9,1.9,2.2,1.9,3.9c0,1.4-0.3,2.4-0.8,3.1
		c-0.6,0.7-1.3,1.2-2.2,1.6c0.8,0.3,1.5,1.1,2,2.4l2.2,5.2h-4.7l-2.1-4.8C576.5,84,575.9,83.6,575,83.6z M575.3,75.9h-1v4h1
		c1.8,0,2.7-0.7,2.7-2c0-0.7-0.2-1.2-0.7-1.5S576.2,75.9,575.3,75.9z"></path>
	<path class="st16" d="M590.9,83.4v-3.6h7.2v3.6H590.9z"></path>
	<path class="st16" d="M614.1,89.9c-2.7,0-4.7-0.8-6.2-2.4c-1.5-1.6-2.2-3.8-2.2-6.6c0-2.8,0.7-5,2.2-6.7c1.5-1.6,3.6-2.5,6.4-2.5
		c1.4,0,2.8,0.3,4.2,0.9l-1,3.8c-1.4-0.5-2.4-0.8-3.2-0.8c-1.4,0-2.5,0.4-3.1,1.3c-0.7,0.9-1,2.2-1,3.9c0,1.7,0.3,3,1,3.8
		s1.7,1.3,3,1.3c1.2,0,2.4-0.3,3.6-1l0.8,3.8C617.4,89.6,615.9,89.9,614.1,89.9z"></path>
	<path class="st16" d="M631.5,89.6l-0.8-3.2H625l-0.8,3.2h-4.6c0.8-3.1,1.7-6.2,2.8-9.5c1.1-3.2,2.1-5.9,3.1-8h4.6
		c1,2.1,2,4.8,3.1,8.1c1.1,3.3,2,6.4,2.8,9.5H631.5z M627.9,76.9c-0.5,1.1-1.1,3-1.9,5.8h3.8C629,79.9,628.3,77.9,627.9,76.9z"></path>
	<path class="st16" d="M649.9,75.9h-4.3v13.8h-4.4V75.9h-4.3v-3.8h13.1V75.9z"></path>
	<path class="st16" d="M665.3,89.6h-4.4V77.3c-0.9,0.4-1.8,0.9-2.8,1.5l-1.8-3.3c1.4-1,3.1-1.9,5.1-2.6h3.9V89.6z"></path>
</g>
<g>
	<g>
		<path class="st16" d="M184.3,179.7l2.7,2.6l-7.7,8.2l-12.8-11.9l7.7-8.2l2.7,2.6l-4.7,5l2.2,2.1l4-4.2l2.7,2.6l-4,4.2l2.3,2.2
			L184.3,179.7z"></path>
		<path class="st16" d="M187.6,180.6l-2-3.2c1.6-0.6,2.9-1.5,3.9-2.5c1.1-1.1,1.3-1.9,0.6-2.6c-0.4-0.4-0.8-0.5-1.3-0.5
			c-0.5,0.1-1.2,0.4-2.3,0.9c-1.5,0.7-2.8,1-3.9,1c-1.1,0-2.2-0.5-3.2-1.5c-1.2-1.2-1.7-2.5-1.6-3.9c0.1-1.4,0.9-2.8,2.3-4.2
			c1.4-1.3,2.8-2.3,4.2-2.8l1.9,3.2c-1.3,0.5-2.4,1.2-3.3,2.1c-1,0.9-1.1,1.7-0.5,2.3c0.3,0.3,0.7,0.5,1.1,0.4c0.4,0,1.1-0.3,2-0.7
			c0.8-0.4,1.5-0.7,2.1-0.8c0.6-0.2,1.2-0.3,1.9-0.3c0.7-0.1,1.3,0.1,1.9,0.3c0.6,0.3,1.2,0.7,1.8,1.3c1.2,1.2,1.6,2.5,1.5,4
			s-1,3-2.4,4.4C190.7,179,189.1,180,187.6,180.6z"></path>
		<path class="st16" d="M197.9,153.1l-3.2,2.9l9.2,10.3l-3.3,3l-9.2-10.3l-3.2,2.9l-2.5-2.8l9.7-8.7L197.9,153.1z"></path>
		<path class="st16" d="M216,156.1l-3.2,2.5l-10.7-13.9l3.4-2.6c3.7,1.9,7.7,3.5,12.1,5c-0.4-0.4-0.9-1-1.4-1.6l-5.6-7.3l3.2-2.5
			l10.7,13.9l-3.4,2.6c-1.6-0.5-2.8-0.8-3.6-1.1c-0.8-0.2-2-0.6-3.4-1.2c-1.5-0.5-2.9-1.1-4.3-1.7c0.5,0.5,1.1,1.3,2,2.4L216,156.1z
			"></path>
		<path class="st16" d="M229.4,127.7c2.1,0.5,4,2,5.5,4.2c1.5,2.3,2.1,4.5,1.8,6.7c-0.3,2.2-1.5,4-3.6,5.4c-2.1,1.4-4.2,1.8-6.3,1.3
			c-2.1-0.5-4-2-5.5-4.2c-1.5-2.3-2.2-4.5-1.9-6.7c0.3-2.2,1.5-4,3.6-5.4C225.2,127.5,227.3,127.1,229.4,127.7z M223.8,134.8
			c0,1.1,0.4,2.3,1.4,3.7c0.9,1.4,1.9,2.3,2.9,2.7c1,0.4,2,0.3,3-0.4c1-0.6,1.4-1.5,1.5-2.6c0-1.1-0.4-2.3-1.4-3.7
			c-0.9-1.4-1.9-2.3-2.9-2.7c-1-0.4-2-0.3-2.9,0.4C224.3,132.8,223.8,133.7,223.8,134.8z"></path>
		<path class="st16" d="M243,130.2l-0.6,0.3l3.1,5.2l-3.8,2.3l-8.9-15.1l4.8-2.8c1.9-1.1,3.6-1.6,5.2-1.4c1.6,0.2,2.8,1,3.6,2.4
			c0.7,1.2,1,2.2,0.9,3.1s-0.5,1.7-1.1,2.5c0.9-0.1,1.9,0.2,2.9,1l4.5,3.3l-4,2.4l-4.2-3.1C244.5,129.8,243.7,129.8,243,130.2z
			 M239.3,123.5l-0.8,0.5l2,3.4l0.8-0.5c1.5-0.9,2-1.9,1.3-3.1c-0.4-0.6-0.8-1-1.4-1C240.7,122.8,240.1,123,239.3,123.5z"></path>
		<path class="st16" d="M255,130.2l-8-15.6l5.6-2.9c2.3-1.2,4.6-1.5,6.7-0.8c2.1,0.6,3.8,2.1,5.1,4.5c1.3,2.4,1.5,4.7,0.8,6.9
			c-0.7,2.1-2.2,3.8-4.6,5L255,130.2z M254.2,115.2l-1.6,0.8l4.6,8.9l1.6-0.8c1.3-0.7,2.1-1.5,2.3-2.6c0.3-1.1,0-2.4-0.8-3.9
			c-0.8-1.5-1.7-2.4-2.7-2.8C256.6,114.4,255.5,114.5,254.2,115.2z"></path>
		<path class="st16" d="M272.6,114.6l-1.4-3.3l6.6-2.9l1.4,3.3L272.6,114.6z"></path>
		<path class="st16" d="M296.5,112.1c-2.5,0.9-4.7,0.8-6.6-0.2s-3.4-2.8-4.3-5.4c-1-2.6-1-5-0.2-7c0.8-2.1,2.6-3.6,5.2-4.5
			c1.3-0.5,2.7-0.7,4.3-0.6l0.4,3.9c-1.5,0-2.6,0.1-3.2,0.4c-1.3,0.5-2.2,1.2-2.5,2.3c-0.3,1-0.2,2.4,0.4,4c0.6,1.6,1.3,2.7,2.2,3.3
			s2,0.6,3.3,0.1c1.1-0.4,2.1-1.1,3-2.2l2.1,3.3C299.5,110.6,298.2,111.5,296.5,112.1z"></path>
		<path class="st16" d="M312.7,106.5l-1.7-2.9l-5.5,1.7l0.2,3.3l-4.4,1.3c-0.1-3.2-0.2-6.5-0.1-9.9c0.1-3.4,0.3-6.3,0.6-8.6l4.4-1.3
			c1.6,1.7,3.3,4,5.3,6.8c2,2.8,3.8,5.5,5.4,8.2L312.7,106.5z M305.5,95.3c-0.2,1.1-0.2,3.2-0.1,6.1l3.6-1.1
			C307.4,97.9,306.3,96.2,305.5,95.3z"></path>
		<path class="st16" d="M327,88.6l-4.2,1l3.3,13.4l-4.3,1.1l-3.3-13.4l-4.2,1l-0.9-3.6l12.7-3.1L327,88.6z"></path>
		<path class="st16" d="M345.2,99.2l-4.3,0.8l-2.2-12.1c-0.8,0.5-1.6,1.2-2.5,1.9l-2.3-2.9c1.2-1.2,2.8-2.4,4.5-3.4l3.8-0.7
			L345.2,99.2z"></path>
	</g>
</g>
<g>
	<path class="st16" d="M770.3,100.7l-0.9,3.7l-11-2.6l4-17l11,2.6l-0.9,3.7l-6.6-1.6l-0.7,3l5.6,1.3l-0.9,3.7l-5.6-1.3l-0.7,3.1
		L770.3,100.7z"></path>
	<path class="st16" d="M771.2,104.1l1.8-3.4c1.3,1,2.7,1.7,4.1,2.1c1.5,0.4,2.3,0.1,2.6-0.8c0.1-0.5,0.1-1-0.2-1.3
		c-0.3-0.4-1-0.9-1.9-1.6c-1.3-0.9-2.3-1.9-2.8-2.9c-0.6-1-0.6-2.2-0.3-3.5c0.4-1.6,1.3-2.7,2.6-3.3c1.3-0.6,2.9-0.6,4.8-0.1
		c1.8,0.5,3.3,1.3,4.5,2.3l-1.8,3.3c-1.1-0.9-2.3-1.5-3.5-1.8c-1.3-0.4-2-0.1-2.3,0.7c-0.1,0.5-0.1,0.9,0.2,1.2s0.8,0.8,1.6,1.4
		c0.7,0.5,1.3,1,1.8,1.4c0.4,0.4,0.9,0.9,1.2,1.5c0.4,0.6,0.6,1.2,0.7,1.8s0,1.4-0.2,2.2c-0.4,1.6-1.4,2.7-2.7,3.3
		c-1.4,0.6-3,0.6-5,0.1C774.2,106,772.5,105.1,771.2,104.1z"></path>
	<path class="st16" d="M800.1,99.2l-4.1-1.3l-4.2,13.1l-4.2-1.4l4.2-13.1l-4.1-1.3l1.2-3.6l12.4,4L800.1,99.2z"></path>
	<path class="st16" d="M802.6,113.9l2.1-3.2c1.2,1.2,2.5,2,3.9,2.5c1.4,0.6,2.3,0.4,2.6-0.5c0.2-0.5,0.2-1-0.1-1.4
		c-0.3-0.4-0.9-1-1.8-1.8c-1.2-1.1-2.1-2.1-2.5-3.2c-0.4-1-0.4-2.2,0.1-3.5c0.6-1.6,1.6-2.6,2.9-3c1.3-0.5,2.9-0.3,4.8,0.4
		c1.8,0.7,3.2,1.6,4.2,2.7l-2.1,3.1c-1-1-2.1-1.7-3.3-2.1c-1.2-0.5-2-0.3-2.3,0.5c-0.2,0.5-0.2,0.9,0.1,1.2s0.7,0.9,1.5,1.5
		c0.7,0.6,1.2,1.1,1.6,1.6s0.8,1,1.1,1.6s0.5,1.2,0.5,1.9c0,0.7-0.1,1.4-0.5,2.1c-0.6,1.5-1.6,2.5-3.1,3s-3.1,0.3-5-0.4
		C805.3,116.1,803.7,115.1,802.6,113.9z"></path>
	<path class="st16" d="M818,113.2l4.3-9.5l4,1.8l-4.2,9.2c-1,2.3-0.7,3.8,1,4.6s3,0,4.1-2.3l4.2-9.2l4,1.8l-4.3,9.5
		c-1,2.1-2.3,3.5-3.9,4.2c-1.7,0.7-3.6,0.5-5.7-0.4s-3.5-2.3-4.1-4C816.8,117.2,817,115.3,818,113.2z"></path>
	<path class="st16" d="M830.6,126.7l8.1-15.5l5.6,2.9c2.3,1.2,3.8,2.9,4.6,5c0.7,2.1,0.5,4.4-0.8,6.8c-1.3,2.4-3,4-5.1,4.6
		c-2.2,0.7-4.4,0.4-6.7-0.8L830.6,126.7z M842.4,117.4l-1.6-0.8l-4.6,8.9l1.6,0.8c1.3,0.7,2.5,0.8,3.5,0.4c1-0.4,1.9-1.4,2.7-2.9
		c0.8-1.5,1-2.8,0.8-3.8C844.5,118.9,843.7,118,842.4,117.4z"></path>
	<path class="st16" d="M853.5,132l1.8-3.1l6.2,3.7l-1.8,3.1L853.5,132z"></path>
	<path class="st16" d="M869.5,150c-2.2-1.5-3.4-3.3-3.7-5.5c-0.3-2.2,0.3-4.4,1.9-6.6c1.6-2.3,3.5-3.7,5.6-4.2s4.4,0,6.7,1.6
		c1.1,0.8,2.1,1.8,3,3.1l-2.9,2.5c-0.9-1.2-1.6-2-2.2-2.4c-1.2-0.8-2.3-1-3.3-0.7c-1,0.3-2,1.2-3,2.7c-1,1.4-1.4,2.7-1.4,3.7
		c0.1,1.1,0.7,2,1.8,2.8c1,0.7,2.1,1.1,3.5,1.2l-1.4,3.6C872.4,151.6,870.9,151,869.5,150z"></path>
	<path class="st16" d="M883.4,159.9l1.3-3l-4.5-3.5l-2.6,2.1l-3.6-2.8c2.5-2,5.2-3.9,8-5.8c2.8-1.9,5.3-3.4,7.3-4.5l3.7,2.8
		c-0.5,2.3-1.3,5.1-2.4,8.3c-1.1,3.2-2.3,6.3-3.5,9.2L883.4,159.9z M888.3,147.6c-1,0.5-2.7,1.7-5,3.5l3,2.3
		C887.4,150.6,888.1,148.7,888.3,147.6z"></path>
	<path class="st16" d="M906.3,161.1l-3.3-2.8l-8.9,10.5l-3.4-2.9l8.9-10.5l-3.3-2.8l2.4-2.9l9.9,8.5L906.3,161.1z"></path>
	<path class="st16" d="M908.4,182l-3.1-3l8.6-8.9c-0.9-0.3-1.9-0.6-3-0.9l1-3.6c1.7,0.3,3.5,0.8,5.5,1.7l2.8,2.7L908.4,182z"></path>
</g>
<g>
	<path class="st16" d="M98,491.5l1.3,4.7L79,501.6l-1.3-5c3.7-3.2,7.4-7,11.1-11.2c-0.7,0.3-1.5,0.5-2.4,0.8l-10.7,2.9l-1.3-4.7
		l20.3-5.5l1.3,5c-1.2,1.5-2.2,2.7-2.8,3.5c-0.6,0.8-1.6,1.9-2.9,3.3c-1.3,1.4-2.6,2.7-3.9,4c0.8-0.3,1.9-0.6,3.5-1.1L98,491.5z"></path>
	<path class="st16" d="M72.5,463.7c1.6-2.1,4-3.5,7.2-4.2c3.2-0.7,6-0.3,8.3,1c2.3,1.3,3.8,3.4,4.4,6.4c0.6,3,0.1,5.5-1.4,7.6
		c-1.6,2.1-4,3.5-7.2,4.2s-6,0.4-8.3-1c-2.3-1.3-3.7-3.5-4.4-6.4C70.5,468.3,71,465.8,72.5,463.7z M77.9,473.1
		c1.2,0.5,2.8,0.6,4.7,0.1c2-0.4,3.4-1.1,4.3-2s1.2-2.1,0.9-3.5c-0.3-1.4-1-2.3-2.2-2.8s-2.8-0.6-4.7-0.1s-3.4,1.1-4.3,2
		c-0.9,0.9-1.2,2.1-0.9,3.4C76,471.7,76.7,472.6,77.9,473.1z"></path>
	<path class="st16" d="M81.5,449.8l0.1,0.8l7.2-1.1l0.8,5.3l-20.8,3.1l-1-6.6c-0.4-2.6-0.1-4.7,0.8-6.4c0.9-1.7,2.3-2.6,4.3-2.9
		c1.6-0.2,2.9-0.1,3.8,0.4c0.9,0.5,1.7,1.3,2.3,2.4c0.2-1,1.1-2,2.4-2.8l5.7-3.5L88,444l-5.4,3.3C81.7,447.9,81.3,448.7,81.5,449.8z
		 M72.3,450.8l0.2,1.1l4.7-0.7l-0.2-1.1c-0.3-2.1-1.3-3.1-2.8-2.8c-0.9,0.1-1.4,0.5-1.7,1.1S72.2,449.8,72.3,450.8z"></path>
	<path class="st16" d="M86.9,436.4L66,438.3l-0.7-7.5c-0.3-3.1,0.4-5.7,2.1-7.8c1.7-2.1,4.1-3.3,7.3-3.6c3.3-0.3,5.9,0.4,8,2.2
		c2.1,1.8,3.2,4.2,3.5,7.3L86.9,436.4z M69.8,430.5l0.2,2.1l12-1.1l-0.2-2.1c-0.2-1.8-0.8-3-1.8-3.8s-2.6-1-4.7-0.9
		c-2,0.2-3.5,0.7-4.3,1.7C70,427.4,69.7,428.8,69.8,430.5z"></path>
	<path class="st16" d="M77.5,409.8l-4.3,0.1l-0.2-8.6l4.3-0.1L77.5,409.8z"></path>
	<path class="st16" d="M85.7,382.2c-0.2,3.2-1.2,5.6-3.3,7.3s-4.7,2.4-8,2.3c-3.4-0.2-6-1.2-7.9-3.1c-1.9-1.9-2.7-4.5-2.6-7.8
		c0.1-1.7,0.5-3.3,1.3-5l4.4,1.4c-0.7,1.6-1,2.9-1.1,3.8c-0.1,1.7,0.4,3,1.4,3.8c1,0.8,2.5,1.3,4.6,1.4c2.1,0.1,3.6-0.2,4.7-0.9
		c1-0.7,1.6-1.9,1.7-3.6c0.1-1.4-0.3-2.8-1-4.3l4.6-0.8C85.4,378.2,85.8,380.1,85.7,382.2z"></path>
	<path class="st16" d="M87.1,361.7l-4,0.5l-0.7,6.8l3.7,1.4l-0.6,5.4c-3.6-1.4-7.2-2.9-11-4.6c-3.7-1.7-6.8-3.3-9.2-4.7l0.6-5.5
		c2.7-0.9,6-1.8,10-2.7s7.9-1.6,11.6-2.1L87.1,361.7z M71.4,364.4c1.2,0.7,3.4,1.7,6.7,3l0.5-4.5C75.1,363.4,72.7,363.9,71.4,364.4z
		"></path>
	<path class="st16" d="M74.3,337.4l-0.9,5.1l16.3,2.8l-0.9,5.2l-16.3-2.8l-0.9,5.1l-4.4-0.8l2.7-15.5L74.3,337.4z"></path>
	<path class="st16" d="M95.7,318.6l-3.5,13.5l-4.1-1.1l-1.9-3.4c-1.2-2.1-2.1-3.7-2.9-4.6c-0.8-0.9-1.6-1.5-2.6-1.8
		c-1.4-0.4-2.3,0.2-2.7,1.6c-0.3,1.1-0.1,2.4,0.5,3.9l-4.1,1.3c-1-2.1-1.1-4.4-0.5-6.9c0.5-2.1,1.5-3.6,2.8-4.5
		c1.3-0.9,2.9-1.1,4.8-0.6c1.7,0.4,3.1,1.4,4.4,2.9c1.3,1.5,2.5,3.3,3.7,5.5l1.8-6.9L95.7,318.6z"></path>
</g>
<g>
	<path class="st16" d="M996.4,319.1l4.6-0.1c-0.3,2-0.3,3.9,0.1,5.5c0.4,1.8,1.2,2.5,2.3,2.3c0.6-0.1,1.1-0.5,1.3-1
		c0.2-0.5,0.4-1.5,0.6-2.9c0.2-1.9,0.7-3.5,1.4-4.6s1.9-1.9,3.6-2.3c1.9-0.4,3.6-0.2,5,0.8c1.4,1,2.3,2.7,2.9,5
		c0.5,2.2,0.6,4.2,0.2,6l-4.5,0c0.3-1.6,0.2-3.2-0.1-4.7c-0.4-1.6-1-2.2-2.1-2c-0.6,0.1-1,0.4-1.2,0.9s-0.4,1.3-0.5,2.5
		c-0.1,1.1-0.3,2-0.5,2.7c-0.2,0.7-0.5,1.4-0.8,2.1c-0.4,0.7-0.9,1.3-1.5,1.7c-0.6,0.4-1.5,0.8-2.4,1c-1.9,0.4-3.6,0.1-5-1
		c-1.4-1.1-2.4-2.9-2.9-5.2C996,323.3,996,321,996.4,319.1z"></path>
	<path class="st16" d="M1007.5,333.8l12.3-2.2l0.9,5.2l-12,2.2c-3,0.5-4.3,1.9-3.9,4.1c0.4,2.2,2.1,3,5.1,2.5l12-2.2l0.9,5.2
		l-12.3,2.2c-2.7,0.5-5,0.1-6.8-1.1c-1.8-1.2-2.9-3.2-3.4-5.9c-0.5-2.7-0.1-4.9,1.1-6.7S1004.7,334.3,1007.5,333.8z"></path>
	<path class="st16" d="M1002.7,355.5l20.8-2.7l1,7.5c0.4,3.1-0.2,5.8-1.8,7.9c-1.6,2.2-4,3.4-7.2,3.8c-3.3,0.4-5.9-0.2-8.1-1.9
		c-2.1-1.7-3.4-4.1-3.8-7.2L1002.7,355.5z M1020,360.8l-0.3-2.1l-11.9,1.5l0.3,2.1c0.2,1.7,0.9,3,2,3.7c1.1,0.7,2.7,0.9,4.7,0.7
		c2-0.3,3.4-0.9,4.3-1.8C1019.9,363.9,1020.3,362.5,1020,360.8z"></path>
	<path class="st16" d="M1013.2,381.7l4.3-0.3l0.6,8.6l-4.3,0.3L1013.2,381.7z"></path>
	<path class="st16" d="M1006.5,409.8c0-3.2,0.9-5.7,2.8-7.4c1.9-1.8,4.5-2.7,7.8-2.7c3.4,0,6,0.8,8,2.6c2,1.8,3,4.3,3,7.6
		c0,1.7-0.3,3.3-1,5.1l-4.5-1.1c0.6-1.7,0.9-2.9,0.9-3.8c0-1.7-0.6-2.9-1.6-3.7c-1-0.8-2.6-1.2-4.7-1.1c-2.1,0-3.6,0.4-4.6,1.2
		s-1.5,2-1.5,3.7c0,1.4,0.4,2.8,1.2,4.3l-4.5,1.1C1007,413.8,1006.5,411.9,1006.5,409.8z"></path>
	<path class="st16" d="M1006.3,430.4l3.9-0.8l0.3-6.8l-3.8-1.1l0.2-5.5c3.7,1.1,7.4,2.4,11.2,3.8c3.8,1.4,7,2.8,9.5,4.1l-0.2,5.5
		c-2.6,1.1-5.9,2.2-9.8,3.4s-7.8,2.1-11.5,2.9L1006.3,430.4z M1021.8,426.6c-1.2-0.6-3.5-1.5-6.9-2.5l-0.2,4.5
		C1018.2,427.8,1020.6,427.2,1021.8,426.6z"></path>
	<path class="st16" d="M1021,453.7l0.5-5.2l-16.4-1.5l0.5-5.3l16.4,1.5l0.5-5.2l4.5,0.4l-1.4,15.6L1021,453.7z"></path>
	<path class="st16" d="M1001.4,474.2l2.2-13.8l4.2,0.7l2.2,3.2c1.4,2,2.5,3.5,3.3,4.3c0.9,0.9,1.8,1.4,2.8,1.5
		c1.5,0.2,2.3-0.4,2.5-1.8c0.2-1.1-0.1-2.4-0.8-3.9l4-1.7c1.2,2,1.5,4.3,1.1,6.8c-0.3,2.2-1.1,3.8-2.4,4.8c-1.3,1-2.8,1.3-4.8,1
		c-1.7-0.3-3.3-1.1-4.7-2.4s-2.8-3.1-4.2-5.2l-1.1,7.1L1001.4,474.2z"></path>
</g>
</svg>